<svg xmlns="http://www.w3.org/2000/svg" xmlns:xlink="http://www.w3.org/1999/xlink" viewBox="0 0 348.16 348.16"><defs><style>.cls-1{fill:url(#Unbenannter_Verlauf_7);}.cls-2{fill:url(#Unbenannter_Verlauf_4);}.cls-3{fill:#fff;}.cls-4{fill:none;stroke:#2c7986;stroke-miterlimit:10;}.cls-5{fill:#2c7986;}.cls-6{fill:#1798d2;}.cls-7{fill:#48885c;}</style><radialGradient id="Unbenannter_Verlauf_7" cx="166.05" cy="166.05" r="166.05" gradientUnits="userSpaceOnUse"><stop offset="0.51" stop-color="#1d1d1b"/><stop offset="0.79" stop-color="#2c2c2a" stop-opacity="0.94"/><stop offset="0.89" stop-color="#60605f" stop-opacity="0.7"/><stop offset="0.97" stop-color="#bcbcbc" stop-opacity="0.3"/><stop offset="1" stop-color="#fff" stop-opacity="0"/></radialGradient><radialGradient id="Unbenannter_Verlauf_4" cx="182.11" cy="182.11" r="166.05" xlink:href="#Unbenannter_Verlauf_7"/></defs><title>wortlab_button</title><g id="Ebene_3" data-name="Ebene 3"><circle class="cls-1" cx="166.05" cy="166.05" r="166.05"/><circle class="cls-2" cx="182.11" cy="182.11" r="166.05"/><circle class="cls-3" cx="174.75" cy="170.73" r="166.05"/></g><g id="Ebene_2" data-name="Ebene 2"><path class="cls-4" d="M66.72,176s16.1,20.29,47.3,14.48,39.93,2.69,50,18.23" transform="translate(-10.34 -11.58)"/><path class="cls-4" d="M66.06,178.54s17.13,19.43,48,12,40,.61,50.91,15.61" transform="translate(-10.34 -11.58)"/><path class="cls-4" d="M65.54,181.15s18.12,18.51,48.55,9.51,40-1.47,51.66,13" transform="translate(-10.34 -11.58)"/><path class="cls-4" d="M65.16,183.78s19,17.55,49,7S154,187.22,166.39,201" transform="translate(-10.34 -11.58)"/><path class="cls-4" d="M64.91,186.44s19.93,16.53,49.27,4.42,39.62-5.6,52.72,7.53" transform="translate(-10.34 -11.58)"/><path class="cls-4" d="M64.8,189.1s20.77,15.48,49.44,1.86,39.27-7.64,53,4.79" transform="translate(-10.34 -11.58)"/><path class="cls-4" d="M64.83,191.76s21.54,14.38,49.47-.7,38.82-9.67,53.21,2" transform="translate(-10.34 -11.58)"/><path class="cls-4" d="M65,194.42s22.26,13.25,49.37-3.27,38.27-11.67,53.25-.73" transform="translate(-10.34 -11.58)"/><path class="cls-4" d="M65.3,197.07s22.91,12.07,49.13-5.83,37.61-13.64,53.14-3.49" transform="translate(-10.34 -11.58)"/><path class="cls-4" d="M65.74,199.69s23.51,10.87,48.76-8.36,36.86-15.57,52.89-6.24" transform="translate(-10.34 -11.58)"/><path class="cls-4" d="M66.31,202.29s24,9.64,48.27-10.88,36-17.46,52.49-9" transform="translate(-10.34 -11.58)"/><path class="cls-4" d="M67,204.86s24.51,8.38,47.64-13.37,35-19.31,52-11.69" transform="translate(-10.34 -11.58)"/><path class="cls-5" d="M68.5,205.28c6.21,20.23,23.31,34.83,47,34.83,23.42,0,40.41-14.31,46.78-34.23-.93-2-11.34-22.95-45.92-15.52C116.32,190.36,97.39,211.6,68.5,205.28Z" transform="translate(-10.34 -11.58)"/><polygon class="cls-5" points="204.23 209.76 197.13 227.53 274.29 227.67 267.15 210.07 260.18 193.3 260.15 193.29 210.9 193.29 210.83 193.47 204.23 209.76"/><path class="cls-4" d="M92.8,158.25s5.13-5.85,10.1,0,10.09,1.09,10-.46" transform="translate(-10.34 -11.58)"/><path class="cls-4" d="M93.15,155.75s6.42-4.39,9.77,2.51,9.51,3.57,9.85,2.05" transform="translate(-10.34 -11.58)"/><path class="cls-4" d="M94.11,153.4s7.31-2.65,8.84,4.88,8.32,5.82,9,4.44" transform="translate(-10.34 -11.58)"/><path class="cls-4" d="M95.62,151.38s7.74-.75,7.35,6.92,6.6,7.72,7.63,6.55" transform="translate(-10.34 -11.58)"/><path class="cls-4" d="M97.59,149.79s7.69,1.21,5.39,8.54,4.48,9.12,5.76,8.24" transform="translate(-10.34 -11.58)"/><path class="cls-4" d="M99.9,148.75s7.14,3.08,3.09,9.61,2.06,9.94,3.52,9.42" transform="translate(-10.34 -11.58)"/><path class="cls-4" d="M102.39,148.31s6.14,4.77.6,10.08-.48,10.14,1.06,10" transform="translate(-10.34 -11.58)"/><path class="cls-4" d="M104.91,148.51s4.76,6.15-1.93,9.91-3,9.7-1.46,10" transform="translate(-10.34 -11.58)"/><path class="cls-4" d="M107.3,149.33s3.09,7.14-4.33,9.11-5.32,8.65-3.9,9.28" transform="translate(-10.34 -11.58)"/><path class="cls-4" d="M109.42,150.72s1.2,7.68-6.48,7.75-7.3,7.05-6.08,8" transform="translate(-10.34 -11.58)"/><path class="cls-4" d="M111.12,152.59s-.75,7.74-8.2,5.89-8.84,5-7.89,6.24" transform="translate(-10.34 -11.58)"/><path class="cls-4" d="M112.3,154.83s-2.66,7.31-9.41,3.66-9.8,2.65-9.19,4.08" transform="translate(-10.34 -11.58)"/><path class="cls-4" d="M118.07,133.12s7.68,1.24,5.36,8.56,4.44,9.14,5.73,8.27" transform="translate(-10.34 -11.58)"/><path class="cls-4" d="M120.38,132.09s7.13,3.11,3.06,9.62,2,10,3.48,9.44" transform="translate(-10.34 -11.58)"/><path class="cls-4" d="M122.87,131.66s6.13,4.79.57,10.08-.53,10.15,1,10" transform="translate(-10.34 -11.58)"/><path class="cls-4" d="M125.4,131.87s4.74,6.17-2,9.9-3,9.69-1.5,9.95" transform="translate(-10.34 -11.58)"/><path class="cls-4" d="M127.79,132.7s3,7.15-4.38,9.1-5.35,8.63-3.93,9.25" transform="translate(-10.34 -11.58)"/><path class="cls-4" d="M129.89,134.1s1.18,7.69-6.5,7.72-7.34,7-6.11,8" transform="translate(-10.34 -11.58)"/><path class="cls-4" d="M131.59,136s-.78,7.74-8.23,5.86-8.85,5-7.91,6.2" transform="translate(-10.34 -11.58)"/><path class="cls-4" d="M132.76,138.22s-2.68,7.3-9.42,3.62-9.82,2.61-9.21,4" transform="translate(-10.34 -11.58)"/><path class="cls-4" d="M133.33,140.68s-4.41,6.41-10,1.16-10.15.09-9.92,1.62" transform="translate(-10.34 -11.58)"/><path class="cls-4" d="M133.28,143.21s-5.88,5.1-10-1.37-9.86-2.45-10-.91" transform="translate(-10.34 -11.58)"/><path class="cls-4" d="M132.59,145.65s-7,3.47-9.34-3.83-8.93-4.83-9.48-3.37" transform="translate(-10.34 -11.58)"/><path class="cls-4" d="M131.32,147.84s-7.6,1.63-8.09-6-7.45-6.9-8.34-5.62" transform="translate(-10.34 -11.58)"/><path class="cls-4" d="M100.56,121.89s-1.76-7.58,5.9-8.2,6.77-7.56,5.48-8.43" transform="translate(-10.34 -11.58)"/><path class="cls-4" d="M98.73,120.14s.18-7.77,7.75-6.47,8.45-5.63,7.41-6.79" transform="translate(-10.34 -11.58)"/><path class="cls-4" d="M97.39,118s2.12-7.49,9.12-4.34,9.58-3.35,8.87-4.73" transform="translate(-10.34 -11.58)"/><path class="cls-4" d="M96.63,115.59s3.91-6.73,9.91-1.93,10.12-.86,9.77-2.37" transform="translate(-10.34 -11.58)"/><path class="cls-4" d="M96.49,113.06s5.47-5.53,10.08.6,10,1.69,10.05.14" transform="translate(-10.34 -11.58)"/><path class="cls-4" d="M97,110.58s6.67-4,9.61,3.1,9.27,4.13,9.7,2.63" transform="translate(-10.34 -11.58)"/><path class="cls-4" d="M98.09,108.3s7.46-2.21,8.53,5.39,8,6.32,8.74,5" transform="translate(-10.34 -11.58)"/><path class="cls-4" d="M99.72,106.37s7.77-.28,6.92,7.35,6.13,8.1,7.23,7" transform="translate(-10.34 -11.58)"/><path class="cls-4" d="M101.78,104.9s7.6,1.67,4.87,8.85,3.92,9.37,5.26,8.57" transform="translate(-10.34 -11.58)"/><path class="cls-4" d="M104.14,104s7,3.51,2.52,9.78,1.46,10,3,9.61" transform="translate(-10.34 -11.58)"/><path class="cls-4" d="M106.66,103.71s5.85,5.13,0,10.1-1.09,10.09.47,10" transform="translate(-10.34 -11.58)"/><path class="cls-4" d="M109.16,104.06s4.39,6.42-2.52,9.78-3.57,9.5-2,9.84" transform="translate(-10.34 -11.58)"/></g><g id="Ebene_1" data-name="Ebene 1"><path class="cls-6" d="M139.6,122.77V89.52l9.86-12.06h-13l-8.93,12.06v51.94H139.6c15.91,8.78,25.39,26.29,25.39,46.33,0,28.76-19.48,52.32-49.53,52.32s-49.54-23.56-49.54-52.32c0-19.67,9.12-36.9,24.5-45.83h12.06V90L93.55,78h-13L90.42,90V123.1C64.07,132.74,47,157.58,47,187.79c0,39,28.38,69,68.46,69s68.45-30.06,68.45-69C183.91,157.24,166.46,132.18,139.6,122.77Z" transform="translate(-10.34 -11.58)"/><rect class="cls-7" x="209.93" y="192.08" width="15.43" height="3.71"/><rect class="cls-7" x="213.33" y="183.15" width="15.43" height="3.71"/><rect class="cls-7" x="216.78" y="174.34" width="15.43" height="3.71"/><rect class="cls-7" x="220.53" y="165.41" width="15.43" height="3.71"/><rect class="cls-7" x="206.42" y="200.42" width="15.43" height="3.71"/><rect class="cls-7" x="202.98" y="208.31" width="15.43" height="3.71"/><rect class="cls-7" x="199.78" y="216.83" width="15.43" height="3.71"/><path class="cls-7" d="M311.18,253.47,255,122.14h14.36V109.39H223v12.75h15.86L180.94,253.47Zm-96.61-32.13,6.6-16.29,24.7-59.93h.38l24.26,59.74,7,16.79,7.14,17.6-77.17-.14Z" transform="translate(-10.34 -11.58)"/></g></svg>