<?xml version="1.0" encoding="utf-8"?>
<!-- Generator: Adobe Illustrator 22.1.0, SVG Export Plug-In . SVG Version: 6.00 Build 0)  -->
<svg version="1.1" xmlns="http://www.w3.org/2000/svg" xmlns:xlink="http://www.w3.org/1999/xlink" x="0px" y="0px"
	 viewBox="0 0 1317 234" style="enable-background:new 0 0 1317 234;" xml:space="preserve">
<style type="text/css">
	.st0{fill:none;stroke:#2C7986;stroke-miterlimit:10;}
	.st1{fill:#2C7986;}
	.st2{fill:#1798D2;}
	.st3{fill:#48885C;}
</style>
<g id="Ebene_2">
	<path class="st0" d="M259,126.2c0,0,17.4,21.9,51,15.6c33.6-6.3,43,2.9,53.9,19.7"/>
	<path class="st0" d="M258.3,128.9c0,0,18.5,20.9,51.7,12.9c33.3-8,43.1,0.7,54.9,16.8"/>
	<path class="st0" d="M257.7,131.8c0,0,19.5,20,52.3,10.2s43.1-1.6,55.7,14"/>
	<path class="st0" d="M257.3,134.6c0,0,20.5,18.9,52.8,7.5s43-3.8,56.3,11.1"/>
	<path class="st0" d="M257,137.5c0,0,21.5,17.8,53.1,4.8s42.7-6,56.8,8.1"/>
	<path class="st0" d="M256.9,140.3c0,0,22.4,16.7,53.3,2s42.3-8.2,57.2,5.2"/>
	<path class="st0" d="M256.9,143.2c0,0,23.2,15.5,53.3-0.8c30.1-16.3,41.9-10.4,57.4,2.2"/>
	<path class="st0" d="M257.1,146.1c0,0,24,14.3,53.2-3.5c29.2-17.8,41.3-12.6,57.4-0.8"/>
	<path class="st0" d="M257.4,148.9c0,0,24.7,13,53-6.3c28.3-19.3,40.6-14.7,57.3-3.8"/>
	<path class="st0" d="M257.9,151.8c0,0,25.3,11.7,52.6-9c27.2-20.7,39.7-16.8,57-6.7"/>
	<path class="st0" d="M258.5,154.6c0,0,25.9,10.4,52-11.7c26.1-22.1,38.8-18.8,56.6-9.7"/>
	<path class="st0" d="M259.3,157.3c0,0,26.4,9,51.3-14.4s37.8-20.8,56-12.6"/>
	<path class="st1" d="M260.9,157.8c6.7,21.8,25.1,37.5,50.6,37.5c25.2,0,43.6-15.4,50.4-36.9c-1-2.2-12.2-24.7-49.5-16.7
		C312.4,141.7,292,164.6,260.9,157.8z"/>
	<path class="st0" d="M1029.4,126.2c0,0,17.4,21.9,51,15.6c33.6-6.3,43,2.9,53.9,19.7"/>
	<path class="st0" d="M1028.7,128.9c0,0,18.5,20.9,51.7,12.9c33.3-8,43.1,0.7,54.9,16.8"/>
	<path class="st0" d="M1028.1,131.8c0,0,19.5,20,52.3,10.2c32.8-9.7,43.1-1.6,55.7,14"/>
	<path class="st0" d="M1027.7,134.6c0,0,20.5,18.9,52.8,7.5c32.3-11.4,43-3.8,56.3,11.1"/>
	<path class="st0" d="M1027.4,137.5c0,0,21.5,17.8,53.1,4.8s42.7-6,56.8,8.1"/>
	<path class="st0" d="M1027.3,140.3c0,0,22.4,16.7,53.3,2s42.3-8.2,57.2,5.2"/>
	<path class="st0" d="M1027.3,143.2c0,0,23.2,15.5,53.3-0.8s41.9-10.4,57.4,2.2"/>
	<path class="st0" d="M1027.5,146.1c0,0,24,14.3,53.2-3.5c29.2-17.8,41.3-12.6,57.4-0.8"/>
	<path class="st0" d="M1027.8,148.9c0,0,24.7,13,53-6.3c28.3-19.3,40.6-14.7,57.3-3.8"/>
	<path class="st0" d="M1028.3,151.8c0,0,25.3,11.7,52.6-9c27.2-20.7,39.7-16.8,57-6.7"/>
	<path class="st0" d="M1028.9,154.6c0,0,25.9,10.4,52-11.7c26.1-22.1,38.8-18.8,56.6-9.7"/>
	<path class="st0" d="M1029.7,157.3c0,0,26.4,9,51.3-14.4c24.9-23.4,37.8-20.8,56-12.6"/>
	<path class="st1" d="M1031.3,157.8c6.7,21.8,25.1,37.5,50.6,37.5c25.2,0,43.6-15.4,50.4-36.9c-1-2.2-12.2-24.7-49.5-16.7
		C1082.9,141.7,1062.4,164.6,1031.3,157.8z"/>
	<polygon class="st1" points="768.4,175.1 760.7,194.2 843.9,194.4 836.2,175.4 828.7,157.3 828.6,157.3 775.5,157.3 775.5,157.5 	
		"/>
	<path class="st0" d="M287.1,107.1c0,0,5.5-6.3,10.9,0c5.4,6.3,10.9,1.2,10.8-0.5"/>
	<path class="st0" d="M287.5,104.4c0,0,6.9-4.7,10.5,2.7s10.2,3.8,10.6,2.2"/>
	<path class="st0" d="M288.5,101.9c0,0,7.9-2.9,9.5,5.3c1.6,8.1,9,6.3,9.7,4.8"/>
	<path class="st0" d="M290.1,99.7c0,0,8.3-0.8,7.9,7.5s7.1,8.3,8.2,7.1"/>
	<path class="st0" d="M292.2,98c0,0,8.3,1.3,5.8,9.2s4.8,9.8,6.2,8.9"/>
	<path class="st0" d="M294.7,96.8c0,0,7.7,3.3,3.3,10.4c-4.4,7,2.2,10.7,3.8,10.2"/>
	<path class="st0" d="M297.4,96.4c0,0,6.6,5.1,0.6,10.9s-0.5,10.9,1.1,10.8"/>
	<path class="st0" d="M300.1,96.6c0,0,5.1,6.6-2.1,10.7s-3.2,10.5-1.6,10.7"/>
	<path class="st0" d="M302.7,97.5c0,0,3.3,7.7-4.7,9.8s-5.7,9.3-4.2,10"/>
	<path class="st0" d="M305,99c0,0,1.3,8.3-7,8.4c-8.3,0.1-7.9,7.6-6.6,8.6"/>
	<path class="st0" d="M306.8,101c0,0-0.8,8.3-8.8,6.4c-8-2-9.5,5.4-8.5,6.7"/>
	<path class="st0" d="M308.1,103.4c0,0-2.9,7.9-10.1,3.9c-7.3-3.9-10.6,2.9-9.9,4.4"/>
	<path class="st0" d="M314.3,80c0,0,8.3,1.3,5.8,9.2c-2.5,7.9,4.8,9.8,6.2,8.9"/>
	<path class="st0" d="M316.8,78.9c0,0,7.7,3.4,3.3,10.4s2.2,10.7,3.8,10.2"/>
	<path class="st0" d="M319.5,78.4c0,0,6.6,5.2,0.6,10.9s-0.6,10.9,1.1,10.8"/>
	<path class="st0" d="M322.2,78.6c0,0,5.1,6.7-2.1,10.7c-7.2,4-3.3,10.4-1.6,10.7"/>
	<path class="st0" d="M324.8,79.5c0,0,3.3,7.7-4.7,9.8s-5.8,9.3-4.2,10"/>
	<path class="st0" d="M327.1,81c0,0,1.3,8.3-7,8.3c-8.3,0-7.9,7.6-6.6,8.6"/>
	<path class="st0" d="M328.9,83.1c0,0-0.8,8.3-8.9,6.3s-9.5,5.4-8.5,6.7"/>
	<path class="st0" d="M330.2,85.5c0,0-2.9,7.9-10.2,3.9s-10.6,2.8-9.9,4.4"/>
	<path class="st0" d="M330.8,88.1c0,0-4.8,6.9-10.8,1.3c-6-5.6-10.9,0.1-10.7,1.7"/>
	<path class="st0" d="M330.7,90.9c0,0-6.3,5.5-10.8-1.5c-4.4-7-10.6-2.6-10.8-1"/>
	<path class="st0" d="M330,93.5c0,0-7.5,3.7-10.1-4.1s-9.6-5.2-10.2-3.6"/>
	<path class="st0" d="M328.6,95.9c0,0-8.2,1.8-8.7-6.5c-0.5-8.3-8-7.4-9-6.1"/>
	<path class="st0" d="M295.4,67.9c0,0-1.9-8.2,6.4-8.8c8.2-0.7,7.3-8.2,5.9-9.1"/>
	<path class="st0" d="M293.5,66c0,0,0.2-8.4,8.4-7s9.1-6.1,8-7.3"/>
	<path class="st0" d="M292,63.7c0,0,2.3-8.1,9.8-4.7c7.5,3.4,10.3-3.6,9.6-5.1"/>
	<path class="st0" d="M291.2,61.1c0,0,4.2-7.2,10.7-2.1s10.9-0.9,10.5-2.6"/>
	<path class="st0" d="M291.1,58.4c0,0,5.9-6,10.9,0.7s10.8,1.8,10.8,0.1"/>
	<path class="st0" d="M291.6,55.7c0,0,7.2-4.3,10.4,3.3c3.2,7.6,10,4.5,10.5,2.8"/>
	<path class="st0" d="M292.8,53.2c0,0,8-2.4,9.2,5.8c1.2,8.2,8.6,6.8,9.4,5.4"/>
	<path class="st0" d="M294.5,51.1c0,0,8.4-0.3,7.5,7.9s6.6,8.7,7.8,7.5"/>
	<path class="st0" d="M296.8,49.6c0,0,8.2,1.8,5.3,9.5s4.2,10.1,5.7,9.2"/>
	<path class="st0" d="M299.3,48.6c0,0,7.5,3.8,2.7,10.5s1.6,10.8,3.2,10.4"/>
	<path class="st0" d="M302,48.3c0,0,6.3,5.5,0,10.9s-1.2,10.9,0.5,10.8"/>
	<path class="st0" d="M304.7,48.7c0,0,4.7,6.9-2.7,10.5s-3.9,10.2-2.2,10.6"/>
	<path class="st0" d="M1035,130.1c0,0,5.5-6.3,10.9,0c5.4,6.3,10.9,1.2,10.8-0.5"/>
	<path class="st0" d="M1035.3,127.4c0,0,6.9-4.7,10.5,2.7c3.6,7.4,10.2,3.8,10.6,2.2"/>
	<path class="st0" d="M1036.4,124.9c0,0,7.9-2.9,9.5,5.3c1.6,8.1,9,6.3,9.7,4.8"/>
	<path class="st0" d="M1038,122.7c0,0,8.3-0.8,7.9,7.5s7.1,8.3,8.2,7.1"/>
	<path class="st0" d="M1040.1,121c0,0,8.3,1.3,5.8,9.2c-2.5,7.9,4.8,9.8,6.2,8.9"/>
	<path class="st0" d="M1042.6,119.9c0,0,7.7,3.3,3.3,10.4c-4.4,7,2.2,10.7,3.8,10.2"/>
	<path class="st0" d="M1045.3,119.4c0,0,6.6,5.1,0.6,10.9c-6,5.7-0.5,10.9,1.1,10.8"/>
	<path class="st0" d="M1048,119.6c0,0,5.1,6.6-2.1,10.7c-7.2,4.1-3.2,10.5-1.6,10.7"/>
	<path class="st0" d="M1050.6,120.5c0,0,3.3,7.7-4.7,9.8s-5.7,9.3-4.2,10"/>
	<path class="st0" d="M1052.9,122c0,0,1.3,8.3-7,8.4s-7.9,7.6-6.6,8.6"/>
	<path class="st0" d="M1054.7,124c0,0-0.8,8.3-8.8,6.4s-9.5,5.4-8.5,6.7"/>
	<path class="st0" d="M1056,126.4c0,0-2.9,7.9-10.1,3.9c-7.3-3.9-10.6,2.9-9.9,4.4"/>
	<path class="st0" d="M1089.5,105.5c0,0,8.3,1.3,5.8,9.2s4.8,9.8,6.2,8.9"/>
	<path class="st0" d="M1092,104.4c0,0,7.7,3.4,3.3,10.4s2.2,10.7,3.8,10.2"/>
	<path class="st0" d="M1094.7,103.9c0,0,6.6,5.2,0.6,10.9s-0.6,10.9,1.1,10.8"/>
	<path class="st0" d="M1097.4,104.1c0,0,5.1,6.7-2.1,10.7c-7.2,4-3.3,10.4-1.6,10.7"/>
	<path class="st0" d="M1100,105c0,0,3.3,7.7-4.7,9.8s-5.8,9.3-4.2,10"/>
	<path class="st0" d="M1102.2,106.5c0,0,1.3,8.3-7,8.3c-8.3,0-7.9,7.6-6.6,8.6"/>
	<path class="st0" d="M1104.1,108.6c0,0-0.8,8.3-8.9,6.3c-8-2-9.5,5.4-8.5,6.7"/>
	<path class="st0" d="M1105.3,111c0,0-2.9,7.9-10.2,3.9c-7.3-4-10.6,2.8-9.9,4.4"/>
	<path class="st0" d="M1105.9,113.6c0,0-4.8,6.9-10.8,1.3c-6-5.6-10.9,0.1-10.7,1.7"/>
	<path class="st0" d="M1105.9,116.4c0,0-6.3,5.5-10.8-1.5c-4.4-7-10.6-2.6-10.8-1"/>
	<path class="st0" d="M1105.1,119c0,0-7.5,3.7-10.1-4.1s-9.6-5.2-10.2-3.6"/>
	<path class="st0" d="M1103.8,121.4c0,0-8.2,1.8-8.7-6.5s-8-7.4-9-6.1"/>
	<path class="st0" d="M1065.1,92c0,0-1.9-8.2,6.4-8.8c8.2-0.7,7.3-8.2,5.9-9.1"/>
	<path class="st0" d="M1063.1,90.2c0,0,0.2-8.4,8.4-7c8.2,1.4,9.1-6.1,8-7.3"/>
	<path class="st0" d="M1061.7,87.9c0,0,2.3-8.1,9.8-4.7c7.5,3.4,10.3-3.6,9.6-5.1"/>
	<path class="st0" d="M1060.9,85.3c0,0,4.2-7.2,10.7-2.1s10.9-0.9,10.5-2.6"/>
	<path class="st0" d="M1060.7,82.5c0,0,5.9-6,10.9,0.7c5,6.6,10.8,1.8,10.8,0.1"/>
	<path class="st0" d="M1061.3,79.9c0,0,7.2-4.3,10.4,3.3s10,4.5,10.5,2.8"/>
	<path class="st0" d="M1062.4,77.4c0,0,8-2.4,9.2,5.8s8.6,6.8,9.4,5.4"/>
	<path class="st0" d="M1064.2,75.3c0,0,8.4-0.3,7.5,7.9s6.6,8.7,7.8,7.5"/>
	<path class="st0" d="M1066.4,73.7c0,0,8.2,1.8,5.3,9.5s4.2,10.1,5.7,9.2"/>
	<path class="st0" d="M1069,72.8c0,0,7.5,3.8,2.7,10.5c-4.8,6.8,1.6,10.8,3.2,10.4"/>
	<path class="st0" d="M1071.7,72.4c0,0,6.3,5.5,0,10.9c-6.3,5.4-1.2,10.9,0.5,10.8"/>
	<path class="st0" d="M1074.4,72.8c0,0,4.7,6.9-2.7,10.5s-3.9,10.2-2.2,10.6"/>
</g>
<g id="Ebene_1">
	<g>
		<path class="st2" d="M36.1,68.1h20l31.2,113.2h0.4l33.4-113.2h22l33.4,113.2h0.4l31.2-113.2h20l-41.2,141.6h-20.2L132.3,94.1h-0.4
			L97.7,209.7H77.5L36.1,68.1z"/>
		<path class="st2" d="M412.9,68.1h49.8c36.2,0,45.4,21.8,45.4,39.6c0,18-13.4,35-34.8,37.4l40.2,64.6h-24l-36-62.4h-21.4v62.4
			h-19.2V68.1z M432.1,130.5h25.2c15.2,0,30.4-3.6,30.4-22.8s-15.2-22.8-30.4-22.8h-25.2V130.5z"/>
		<path class="st2" d="M561.1,86.1h-45.6v-18h110.4v18h-45.6v123.6h-19.2V86.1z"/>
		<path class="st3" d="M646.3,68.1h19.2v123.6h65v18h-84.2V68.1z"/>
		<path class="st3" d="M890.9,68.1h49.2c24.6,0,43,11.4,43,35.4c0,16.2-10,26.4-24.4,31.2v0.4c17,1.2,30.6,16.2,30.6,35.2
			c0,25.4-22.2,39.4-49.8,39.4h-48.6V68.1z M910.1,126.9h26.2c14.6,0,26.4-5.8,26.4-21.2c0-11.2-7-20.8-22.4-20.8h-30.2V126.9z
			 M910.1,192.9h28.2c11.6,0,30.6-4,30.6-24c0-16.8-11.8-25.2-30.4-25.2h-28.4V192.9z"/>
		<path class="st3" d="M1183.3,68.1h49.8c36.2,0,45.4,21.8,45.4,39.6c0,18-13.4,35-34.8,37.4l40.2,64.6h-24l-36-62.4h-21.4v62.4
			h-19.2V68.1z M1202.5,130.5h25.2c15.2,0,30.4-3.6,30.4-22.8s-15.2-22.8-30.4-22.8h-25.2V130.5z"/>
	</g>
	<path class="st2" d="M337.5,68.8V33l10.6-13h-14l-9.6,13v56h13c17.2,9.5,27.4,28.3,27.4,49.9c0,31-21,56.4-53.4,56.4
		s-53.4-25.4-53.4-56.4c0-21.2,9.8-39.8,26.4-49.4v0h13v-56l-9.6-13h-14l10.6,13v35.7c-28.4,10.4-46.8,37.2-46.8,69.7
		c0,42,30.6,74.4,73.8,74.4s73.8-32.4,73.8-74.4C385.3,106,366.5,79,337.5,68.8z"/>
	<path class="st3" d="M1108,68.8V33l10.6-13h-14l-9.6,13v56h13c17.2,9.5,27.4,28.3,27.4,49.9c0,31-21,56.4-53.4,56.4
		s-53.4-25.4-53.4-56.4c0-21.2,9.8-39.8,26.4-49.4v0h13v-56l-9.6-13h-14l10.6,13v35.7c-28.4,10.4-46.8,37.2-46.8,69.7
		c0,42,30.6,74.4,73.8,74.4s73.8-32.4,73.8-74.4C1155.7,106,1136.9,79,1108,68.8z"/>
	<rect x="774.5" y="156" class="st3" width="16.6" height="4"/>
	<rect x="778.2" y="146.4" class="st3" width="16.6" height="4"/>
	<rect x="781.9" y="136.9" class="st3" width="16.6" height="4"/>
	<rect x="785.9" y="127.3" class="st3" width="16.6" height="4"/>
	<rect x="770.7" y="165" class="st3" width="16.6" height="4"/>
	<rect x="767" y="173.5" class="st3" width="16.6" height="4"/>
	<rect x="763.6" y="182.7" class="st3" width="16.6" height="4"/>
	<path class="st3" d="M872.5,209.7L811.9,68.2h15.5V54.4h-50v13.7h17.1l-62.4,141.6H872.5z M768.4,175.1l7.1-17.6l26.6-64.6h0.4
		l26.2,64.4l7.5,18.1l7.7,19l-83.2-0.2L768.4,175.1z"/>
</g>
</svg>
